<svg version="1.1" id="Layer_1" xmlns="http://www.w3.org/2000/svg" xmlns:xlink="http://www.w3.org/1999/xlink" x="0px" y="0px"
	 width="100%" viewBox="0 0 2560 1440" enable-background="new 0 0 2560 1440" xml:space="preserve">
<path fill="#000000" opacity="1.000000" stroke="none" 
	d="
M1489.000000,1441.000000 
	C992.666687,1441.000000 496.833344,1441.000000 1.000000,1441.000000 
	C1.000000,961.000000 1.000000,481.000000 1.000000,1.000000 
	C854.333313,1.000000 1707.666626,1.000000 2561.000000,1.000000 
	C2561.000000,481.000000 2561.000000,961.000000 2561.000000,1441.000000 
	C2203.833252,1441.000000 1846.666626,1441.000000 1489.000000,1441.000000 
M436.000000,773.475586 
	C435.519745,777.805542 437.078033,782.397278 434.446747,787.671753 
	C433.726013,786.366882 433.419006,785.954895 433.254395,785.492310 
	C426.687622,767.040405 420.194305,748.562012 413.565857,730.132324 
	C398.925903,689.427673 384.253632,648.734680 369.529388,608.060486 
	C354.082336,565.389648 338.494354,522.769592 323.200043,480.044281 
	C322.053467,476.841339 320.295563,477.004883 317.995239,477.004333 
	C292.664825,476.998199 267.334412,476.995178 242.003998,477.017700 
	C240.741974,477.018829 239.480194,477.262543 238.250839,477.389954 
	C238.250839,664.360229 238.250839,850.949524 238.250839,1037.927979 
	C239.950851,1037.927979 241.431320,1038.109985 242.853561,1037.899170 
	C253.538147,1036.315308 264.189331,1034.490967 274.893005,1033.055176 
	C290.984772,1030.896362 307.110413,1028.989868 323.222473,1026.982788 
	C325.924500,1026.646240 327.126740,1025.354248 327.057648,1022.426575 
	C326.880737,1014.931641 326.999908,1007.429749 326.999908,999.930603 
	C327.000031,911.940735 327.000000,823.950806 327.000000,735.960938 
	C327.000000,734.035400 327.000000,732.109924 327.000000,730.184387 
	C327.473511,730.181335 327.946991,730.178284 328.420502,730.175232 
	C332.941620,742.911804 337.509857,755.631897 341.974396,768.388245 
	C352.329620,797.975952 362.653381,827.574646 372.955200,857.180969 
	C383.846802,888.482422 394.714996,919.792053 405.560913,951.109375 
	C412.400604,970.858765 419.235596,990.610291 425.930542,1010.408936 
	C426.987091,1013.533447 428.058319,1014.162720 431.555908,1013.432190 
	C438.280090,1012.027832 445.235504,1011.713867 452.101257,1011.007996 
	C462.406281,1009.948608 472.722717,1008.997803 483.023163,1007.896729 
	C494.610931,1006.658081 506.166077,1005.046570 517.777466,1004.130127 
	C522.236755,1003.778198 524.107605,1002.875305 524.103943,997.877625 
	C523.979065,826.064148 523.999939,654.250610 523.999939,482.437042 
	C523.999939,480.692261 523.999939,478.947510 523.999939,477.310852 
	C494.255798,477.310852 465.330627,477.310852 436.000000,477.310852 
	C436.000000,575.908447 436.000000,674.195740 436.000000,773.475586 
M2177.496826,909.997192 
	C2177.713867,910.784607 2177.863281,911.598450 2178.158447,912.355408 
	C2185.866943,932.131287 2193.606445,951.895081 2201.306641,971.674255 
	C2207.584229,987.799622 2213.793945,1003.951660 2220.095459,1020.067810 
	C2221.146240,1022.755493 2222.045898,1025.147095 2226.117920,1025.195435 
	C2231.975098,1025.264893 2237.822021,1026.531372 2243.665771,1027.342407 
	C2252.263428,1028.535645 2260.852783,1029.788330 2269.448486,1030.996338 
	C2280.802002,1032.592041 2292.153076,1034.206543 2303.515381,1035.739258 
	C2309.909912,1036.601807 2316.324463,1037.316040 2323.689697,1038.214111 
	C2321.179443,1032.017334 2319.032959,1026.931885 2317.048340,1021.783997 
	C2306.126221,993.454712 2295.311768,965.083679 2284.327148,936.778687 
	C2273.989258,910.141052 2263.423096,883.592285 2253.071777,856.959778 
	C2239.470215,821.964600 2226.066406,786.892212 2212.359131,751.938660 
	C2210.066406,746.092041 2209.139648,741.157715 2212.252686,734.970032 
	C2218.341064,722.869446 2223.297363,710.196472 2228.648438,697.728638 
	C2238.444824,674.904541 2248.125732,652.030701 2257.971191,629.227844 
	C2266.137695,610.313538 2274.541260,591.501709 2282.713623,572.589905 
	C2293.863770,546.786438 2304.904541,520.935730 2315.967285,495.094666 
	C2318.448975,489.297180 2320.828613,483.455933 2323.520020,477.000000 
	C2320.869141,477.000000 2319.061035,477.000000 2317.252686,477.000000 
	C2288.756836,477.000000 2260.258789,477.170410 2231.766846,476.839264 
	C2226.776611,476.781281 2224.689941,478.790497 2223.058838,482.781952 
	C2219.598877,491.249542 2216.055908,499.684540 2212.429688,508.082306 
	C2205.689453,523.692505 2198.802490,539.239380 2192.091064,554.861755 
	C2183.320801,575.275818 2174.684570,595.747437 2165.912842,616.160950 
	C2165.173584,617.881897 2163.850098,619.351868 2162.315918,621.665588 
	C2161.298584,619.377014 2160.585693,617.942017 2160.010254,616.453918 
	C2150.648926,592.246582 2141.321777,568.026001 2131.952393,543.821777 
	C2123.879150,522.965271 2115.656250,502.165649 2107.771240,481.238464 
	C2106.469971,477.785034 2104.767822,476.915283 2101.333008,476.929993 
	C2072.504150,477.053253 2043.674805,476.995178 2014.845581,477.013550 
	C2013.294922,477.014526 2011.744385,477.211029 2010.116577,477.321747 
	C2010.588379,479.070160 2010.815552,480.362701 2011.279297,481.563965 
	C2024.919922,516.895996 2038.516113,552.245300 2052.260986,587.536804 
	C2070.688477,634.851135 2089.288330,682.098206 2107.655029,729.435974 
	C2109.841309,735.070435 2112.539795,740.580505 2109.452393,747.296692 
	C2101.740479,764.073120 2094.727783,781.170654 2087.410156,798.128784 
	C2072.710205,832.194397 2058.013672,866.261536 2043.277710,900.311523 
	C2031.071289,928.516418 2018.794189,956.690735 2006.588745,984.896179 
	C2004.534180,989.644287 2002.683838,994.480835 2000.661621,999.467651 
	C2014.286865,1001.020325 2027.312988,1002.559082 2040.352295,1003.976562 
	C2056.194092,1005.698792 2072.062012,1007.192383 2087.886719,1009.056396 
	C2092.952637,1009.653076 2095.181885,1007.446533 2097.010498,1003.080933 
	C2105.722900,982.281250 2114.703125,961.593750 2123.585449,940.865234 
	C2130.408203,924.943481 2137.188232,909.003418 2144.061035,893.103210 
	C2148.555420,882.705505 2153.181641,872.364685 2158.373535,860.580200 
	C2164.956543,877.713318 2171.027100,893.512878 2177.496826,909.997192 
M718.500122,770.000000 
	C750.535461,769.553406 782.570801,769.106812 814.609375,768.660217 
	C814.609375,739.660767 814.609375,710.953064 814.609375,682.500000 
	C775.223083,682.500000 736.227356,682.500000 697.295898,682.500000 
	C697.295898,643.612732 697.295898,605.024597 697.295898,565.852539 
	C749.295227,565.852539 801.001953,565.852539 852.734497,565.852539 
	C852.734497,536.009888 852.734497,506.753815 852.734497,477.329651 
	C771.102600,477.329651 689.736511,477.329651 608.351074,477.329651 
	C608.351074,650.026733 608.351074,822.393982 608.351074,994.922546 
	C614.463135,994.573059 620.232300,994.399658 625.970703,993.883667 
	C639.395813,992.676514 652.796570,991.193237 666.225708,990.036743 
	C676.250305,989.173462 686.312866,988.756470 696.342468,987.943298 
	C711.434021,986.719727 726.505859,985.251709 741.597046,984.022583 
	C755.067932,982.925293 768.545227,981.868958 782.035156,981.050171 
	C800.838928,979.908752 819.659180,979.042908 838.467529,977.973511 
	C843.193176,977.704712 847.900208,977.109131 852.669922,976.658630 
	C852.669922,947.349060 852.669922,918.302917 852.669922,889.385132 
	C850.578369,889.612854 848.807007,889.871399 847.026306,889.988770 
	C836.652588,890.672546 826.276794,891.324829 815.901489,891.984863 
	C800.089233,892.990723 784.278931,894.029724 768.463806,894.987183 
	C756.426270,895.716003 744.375305,896.235291 732.344543,897.056274 
	C726.617615,897.447021 720.935974,898.473450 715.211609,898.938293 
	C709.337463,899.415344 703.436157,899.558350 697.306396,899.859375 
	C697.306396,856.510254 697.306396,813.463623 697.306396,770.000000 
	C704.238525,770.000000 710.869385,770.000000 718.500122,770.000000 
M1403.500000,566.000000 
	C1429.580200,566.000000 1455.660278,566.000000 1481.718994,566.000000 
	C1481.718994,535.979431 1481.718994,506.722778 1481.718994,477.346619 
	C1399.737183,477.346619 1318.036621,477.346619 1236.395996,477.346619 
	C1236.395996,640.049866 1236.395996,802.406250 1236.395996,964.704468 
	C1265.716431,964.704468 1294.639893,964.704468 1324.144775,964.704468 
	C1324.144775,898.040161 1324.144775,831.668762 1324.144775,764.889160 
	C1363.983276,764.889160 1403.240112,764.889160 1442.661987,764.889160 
	C1442.661987,735.768005 1442.661987,707.060364 1442.661987,677.764893 
	C1402.950806,677.764893 1363.574219,677.764893 1324.310059,677.764893 
	C1324.310059,640.252441 1324.310059,603.330017 1324.310059,566.000000 
	C1350.578613,566.000000 1376.539307,566.000000 1403.500000,566.000000 
M1180.000000,541.500000 
	C1180.000000,520.085327 1180.000000,498.670685 1180.000000,477.269226 
	C1088.986938,477.269226 998.739014,477.269226 908.345276,477.269226 
	C908.345276,506.913696 908.345276,536.287842 908.345276,566.251343 
	C939.065125,566.251343 969.444092,566.251343 1000.203247,566.251343 
	C1000.203247,701.085266 1000.203247,835.328674 1000.203247,970.377380 
	C1005.695801,969.893372 1010.736633,969.202759 1015.793823,969.049744 
	C1031.059082,968.587769 1046.332397,968.396729 1061.599243,967.975830 
	C1070.305664,967.735779 1079.005371,967.253601 1088.244385,966.857361 
	C1088.244385,832.934387 1088.244385,699.573792 1088.244385,565.801270 
	C1119.071167,565.801270 1149.329712,565.801270 1180.000000,565.801270 
	C1180.000000,557.761169 1180.000000,550.130615 1180.000000,541.500000 
M1776.000000,949.500000 
	C1775.999878,932.336731 1775.919800,915.172729 1776.067993,898.010742 
	C1776.097168,894.639709 1774.941528,893.183777 1771.651245,892.990234 
	C1755.336182,892.030212 1739.025757,890.991760 1722.712158,890.006470 
	C1711.338379,889.319519 1699.966797,888.575195 1688.585938,888.033325 
	C1672.549438,887.269836 1656.503418,886.713074 1640.465698,885.973267 
	C1635.745850,885.755493 1631.040649,885.217407 1625.814697,884.783386 
	C1625.814697,748.667236 1625.814697,612.972290 1625.814697,477.274292 
	C1595.992310,477.274292 1566.736084,477.274292 1537.316528,477.274292 
	C1537.316528,641.239258 1537.316528,804.929749 1537.316528,968.513184 
	C1542.045044,969.031433 1546.437378,969.775391 1550.852173,969.951416 
	C1570.221558,970.723877 1589.601074,971.244995 1608.969727,972.031982 
	C1621.018555,972.521545 1633.052979,973.355774 1645.096802,973.977783 
	C1665.074219,975.009583 1685.052368,976.026245 1705.033325,976.985535 
	C1713.799438,977.406372 1722.582153,977.519836 1731.340332,978.053528 
	C1738.230713,978.473389 1745.084595,979.481934 1751.973755,979.941467 
	C1759.827271,980.465271 1767.702148,980.670105 1776.000000,981.032532 
	C1776.000000,970.428650 1776.000000,960.464355 1776.000000,949.500000 
M1848.000000,868.500000 
	C1848.000000,899.320801 1847.999878,930.141541 1848.000000,960.962341 
	C1848.000000,968.126038 1848.138916,975.293579 1847.942139,982.451843 
	C1847.845337,985.974426 1849.156494,987.287109 1852.609497,987.040283 
	C1855.259766,986.850830 1857.952759,986.851807 1860.598999,987.083984 
	C1874.851562,988.334778 1889.090332,989.745667 1903.344360,990.979614 
	C1914.095581,991.910278 1924.862793,992.657898 1935.707520,993.493469 
	C1935.707520,821.472717 1935.707520,649.458801 1935.707520,477.361816 
	C1906.377197,477.361816 1877.340576,477.361816 1848.000000,477.361816 
	C1848.000000,607.648926 1848.000000,737.574463 1848.000000,868.500000 
z"/>
<path fill="#E50914" opacity="1.000000" stroke="none" 
	d="
M436.000000,772.979309 
	C436.000000,674.195740 436.000000,575.908447 436.000000,477.310852 
	C465.330627,477.310852 494.255798,477.310852 523.999939,477.310852 
	C523.999939,478.947510 523.999939,480.692261 523.999939,482.437042 
	C523.999939,654.250610 523.979065,826.064148 524.103943,997.877625 
	C524.107605,1002.875305 522.236755,1003.778198 517.777466,1004.130127 
	C506.166077,1005.046570 494.610931,1006.658081 483.023163,1007.896729 
	C472.722717,1008.997803 462.406281,1009.948608 452.101257,1011.007996 
	C445.235504,1011.713867 438.280090,1012.027832 431.555908,1013.432190 
	C428.058319,1014.162720 426.987091,1013.533447 425.930542,1010.408936 
	C419.235596,990.610291 412.400604,970.858765 405.560913,951.109375 
	C394.714996,919.792053 383.846802,888.482422 372.955200,857.180969 
	C362.653381,827.574646 352.329620,797.975952 341.974396,768.388245 
	C337.509857,755.631897 332.941620,742.911804 328.420502,730.175232 
	C327.946991,730.178284 327.473511,730.181335 327.000000,730.184387 
	C327.000000,732.109924 327.000000,734.035400 327.000000,735.960938 
	C327.000000,823.950806 327.000031,911.940735 326.999908,999.930603 
	C326.999908,1007.429749 326.880737,1014.931641 327.057648,1022.426575 
	C327.126740,1025.354248 325.924500,1026.646240 323.222473,1026.982788 
	C307.110413,1028.989868 290.984772,1030.896362 274.893005,1033.055176 
	C264.189331,1034.490967 253.538147,1036.315308 242.853561,1037.899170 
	C241.431320,1038.109985 239.950851,1037.927979 238.250839,1037.927979 
	C238.250839,850.949524 238.250839,664.360229 238.250839,477.389954 
	C239.480194,477.262543 240.741974,477.018829 242.003998,477.017700 
	C267.334412,476.995178 292.664825,476.998199 317.995239,477.004333 
	C320.295563,477.004883 322.053467,476.841339 323.200043,480.044281 
	C338.494354,522.769592 354.082336,565.389648 369.529388,608.060486 
	C384.253632,648.734680 398.925903,689.427673 413.565857,730.132324 
	C420.194305,748.562012 426.687622,767.040405 433.254395,785.492310 
	C433.419006,785.954895 433.726013,786.366882 434.446747,787.671753 
	C437.078033,782.397278 435.519745,777.805542 436.000000,772.979309 
z"/>
<path fill="#E50914" opacity="1.000000" stroke="none" 
	d="
M2177.297363,909.654846 
	C2171.027100,893.512878 2164.956543,877.713318 2158.373535,860.580200 
	C2153.181641,872.364685 2148.555420,882.705505 2144.061035,893.103210 
	C2137.188232,909.003418 2130.408203,924.943481 2123.585449,940.865234 
	C2114.703125,961.593750 2105.722900,982.281250 2097.010498,1003.080933 
	C2095.181885,1007.446533 2092.952637,1009.653076 2087.886719,1009.056396 
	C2072.062012,1007.192383 2056.194092,1005.698792 2040.352295,1003.976562 
	C2027.312988,1002.559082 2014.286865,1001.020325 2000.661621,999.467651 
	C2002.683838,994.480835 2004.534180,989.644287 2006.588745,984.896179 
	C2018.794189,956.690735 2031.071289,928.516418 2043.277710,900.311523 
	C2058.013672,866.261536 2072.710205,832.194397 2087.410156,798.128784 
	C2094.727783,781.170654 2101.740479,764.073120 2109.452393,747.296692 
	C2112.539795,740.580505 2109.841309,735.070435 2107.655029,729.435974 
	C2089.288330,682.098206 2070.688477,634.851135 2052.260986,587.536804 
	C2038.516113,552.245300 2024.919922,516.895996 2011.279297,481.563965 
	C2010.815552,480.362701 2010.588379,479.070160 2010.116577,477.321747 
	C2011.744385,477.211029 2013.294922,477.014526 2014.845581,477.013550 
	C2043.674805,476.995178 2072.504150,477.053253 2101.333008,476.929993 
	C2104.767822,476.915283 2106.469971,477.785034 2107.771240,481.238464 
	C2115.656250,502.165649 2123.879150,522.965271 2131.952393,543.821777 
	C2141.321777,568.026001 2150.648926,592.246582 2160.010254,616.453918 
	C2160.585693,617.942017 2161.298584,619.377014 2162.315918,621.665588 
	C2163.850098,619.351868 2165.173584,617.881897 2165.912842,616.160950 
	C2174.684570,595.747437 2183.320801,575.275818 2192.091064,554.861755 
	C2198.802490,539.239380 2205.689453,523.692505 2212.429688,508.082306 
	C2216.055908,499.684540 2219.598877,491.249542 2223.058838,482.781952 
	C2224.689941,478.790497 2226.776611,476.781281 2231.766846,476.839264 
	C2260.258789,477.170410 2288.756836,477.000000 2317.252686,477.000000 
	C2319.061035,477.000000 2320.869141,477.000000 2323.520020,477.000000 
	C2320.828613,483.455933 2318.448975,489.297180 2315.967285,495.094666 
	C2304.904541,520.935730 2293.863770,546.786438 2282.713623,572.589905 
	C2274.541260,591.501709 2266.137695,610.313538 2257.971191,629.227844 
	C2248.125732,652.030701 2238.444824,674.904541 2228.648438,697.728638 
	C2223.297363,710.196472 2218.341064,722.869446 2212.252686,734.970032 
	C2209.139648,741.157715 2210.066406,746.092041 2212.359131,751.938660 
	C2226.066406,786.892212 2239.470215,821.964600 2253.071777,856.959778 
	C2263.423096,883.592285 2273.989258,910.141052 2284.327148,936.778687 
	C2295.311768,965.083679 2306.126221,993.454712 2317.048340,1021.783997 
	C2319.032959,1026.931885 2321.179443,1032.017334 2323.689697,1038.214111 
	C2316.324463,1037.316040 2309.909912,1036.601807 2303.515381,1035.739258 
	C2292.153076,1034.206543 2280.802002,1032.592041 2269.448486,1030.996338 
	C2260.852783,1029.788330 2252.263428,1028.535645 2243.665771,1027.342407 
	C2237.822021,1026.531372 2231.975098,1025.264893 2226.117920,1025.195435 
	C2222.045898,1025.147095 2221.146240,1022.755493 2220.095459,1020.067810 
	C2213.793945,1003.951660 2207.584229,987.799622 2201.306641,971.674255 
	C2193.606445,951.895081 2185.866943,932.131287 2178.158447,912.355408 
	C2177.863281,911.598450 2177.713867,910.784607 2177.297363,909.654846 
z"/>
<path fill="#E50914" opacity="1.000000" stroke="none" 
	d="
M718.000183,770.000000 
	C710.869385,770.000000 704.238525,770.000000 697.306396,770.000000 
	C697.306396,813.463623 697.306396,856.510254 697.306396,899.859375 
	C703.436157,899.558350 709.337463,899.415344 715.211609,898.938293 
	C720.935974,898.473450 726.617615,897.447021 732.344543,897.056274 
	C744.375305,896.235291 756.426270,895.716003 768.463806,894.987183 
	C784.278931,894.029724 800.089233,892.990723 815.901489,891.984863 
	C826.276794,891.324829 836.652588,890.672546 847.026306,889.988770 
	C848.807007,889.871399 850.578369,889.612854 852.669922,889.385132 
	C852.669922,918.302917 852.669922,947.349060 852.669922,976.658630 
	C847.900208,977.109131 843.193176,977.704712 838.467529,977.973511 
	C819.659180,979.042908 800.838928,979.908752 782.035156,981.050171 
	C768.545227,981.868958 755.067932,982.925293 741.597046,984.022583 
	C726.505859,985.251709 711.434021,986.719727 696.342468,987.943298 
	C686.312866,988.756470 676.250305,989.173462 666.225708,990.036743 
	C652.796570,991.193237 639.395813,992.676514 625.970703,993.883667 
	C620.232300,994.399658 614.463135,994.573059 608.351074,994.922546 
	C608.351074,822.393982 608.351074,650.026733 608.351074,477.329651 
	C689.736511,477.329651 771.102600,477.329651 852.734497,477.329651 
	C852.734497,506.753815 852.734497,536.009888 852.734497,565.852539 
	C801.001953,565.852539 749.295227,565.852539 697.295898,565.852539 
	C697.295898,605.024597 697.295898,643.612732 697.295898,682.500000 
	C736.227356,682.500000 775.223083,682.500000 814.609375,682.500000 
	C814.609375,710.953064 814.609375,739.660767 814.609375,768.660217 
	C782.570801,769.106812 750.535461,769.553406 718.000183,770.000000 
z"/>
<path fill="#E50914" opacity="1.000000" stroke="none" 
	d="
M1403.000000,566.000000 
	C1376.539307,566.000000 1350.578613,566.000000 1324.310059,566.000000 
	C1324.310059,603.330017 1324.310059,640.252441 1324.310059,677.764893 
	C1363.574219,677.764893 1402.950806,677.764893 1442.661987,677.764893 
	C1442.661987,707.060364 1442.661987,735.768005 1442.661987,764.889160 
	C1403.240112,764.889160 1363.983276,764.889160 1324.144775,764.889160 
	C1324.144775,831.668762 1324.144775,898.040161 1324.144775,964.704468 
	C1294.639893,964.704468 1265.716431,964.704468 1236.395996,964.704468 
	C1236.395996,802.406250 1236.395996,640.049866 1236.395996,477.346619 
	C1318.036621,477.346619 1399.737183,477.346619 1481.718994,477.346619 
	C1481.718994,506.722778 1481.718994,535.979431 1481.718994,566.000000 
	C1455.660278,566.000000 1429.580200,566.000000 1403.000000,566.000000 
z"/>
<path fill="#E50914" opacity="1.000000" stroke="none" 
	d="
M1180.000000,542.000000 
	C1180.000000,550.130615 1180.000000,557.761169 1180.000000,565.801270 
	C1149.329712,565.801270 1119.071167,565.801270 1088.244385,565.801270 
	C1088.244385,699.573792 1088.244385,832.934387 1088.244385,966.857361 
	C1079.005371,967.253601 1070.305664,967.735779 1061.599243,967.975830 
	C1046.332397,968.396729 1031.059082,968.587769 1015.793823,969.049744 
	C1010.736633,969.202759 1005.695801,969.893372 1000.203247,970.377380 
	C1000.203247,835.328674 1000.203247,701.085266 1000.203247,566.251343 
	C969.444092,566.251343 939.065125,566.251343 908.345276,566.251343 
	C908.345276,536.287842 908.345276,506.913696 908.345276,477.269226 
	C998.739014,477.269226 1088.986938,477.269226 1180.000000,477.269226 
	C1180.000000,498.670685 1180.000000,520.085327 1180.000000,542.000000 
z"/>
<path fill="#E50914" opacity="1.000000" stroke="none" 
	d="
M1776.000000,950.000000 
	C1776.000000,960.464355 1776.000000,970.428650 1776.000000,981.032532 
	C1767.702148,980.670105 1759.827271,980.465271 1751.973755,979.941467 
	C1745.084595,979.481934 1738.230713,978.473389 1731.340332,978.053528 
	C1722.582153,977.519836 1713.799438,977.406372 1705.033325,976.985535 
	C1685.052368,976.026245 1665.074219,975.009583 1645.096802,973.977783 
	C1633.052979,973.355774 1621.018555,972.521545 1608.969727,972.031982 
	C1589.601074,971.244995 1570.221558,970.723877 1550.852173,969.951416 
	C1546.437378,969.775391 1542.045044,969.031433 1537.316528,968.513184 
	C1537.316528,804.929749 1537.316528,641.239258 1537.316528,477.274292 
	C1566.736084,477.274292 1595.992310,477.274292 1625.814697,477.274292 
	C1625.814697,612.972290 1625.814697,748.667236 1625.814697,884.783386 
	C1631.040649,885.217407 1635.745850,885.755493 1640.465698,885.973267 
	C1656.503418,886.713074 1672.549438,887.269836 1688.585938,888.033325 
	C1699.966797,888.575195 1711.338379,889.319519 1722.712158,890.006470 
	C1739.025757,890.991760 1755.336182,892.030212 1771.651245,892.990234 
	C1774.941528,893.183777 1776.097168,894.639709 1776.067993,898.010742 
	C1775.919800,915.172729 1775.999878,932.336731 1776.000000,950.000000 
z"/>
<path fill="#E50914" opacity="1.000000" stroke="none" 
	d="
M1848.000000,868.000000 
	C1848.000000,737.574463 1848.000000,607.648926 1848.000000,477.361816 
	C1877.340576,477.361816 1906.377197,477.361816 1935.707520,477.361816 
	C1935.707520,649.458801 1935.707520,821.472717 1935.707520,993.493469 
	C1924.862793,992.657898 1914.095581,991.910278 1903.344360,990.979614 
	C1889.090332,989.745667 1874.851562,988.334778 1860.598999,987.083984 
	C1857.952759,986.851807 1855.259766,986.850830 1852.609497,987.040283 
	C1849.156494,987.287109 1847.845337,985.974426 1847.942139,982.451843 
	C1848.138916,975.293579 1848.000000,968.126038 1848.000000,960.962341 
	C1847.999878,930.141541 1848.000000,899.320801 1848.000000,868.000000 
z"/>
</svg>