<svg version="1.1" id="Layer_1" xmlns="http://www.w3.org/2000/svg" xmlns:xlink="http://www.w3.org/1999/xlink" x="0px" y="0px"
	 width="100%" viewBox="0 0 460 460" enable-background="new 0 0 460 460" xml:space="preserve">
<path fill="#AA0001" opacity="1.000000" stroke="none" 
	d="
M210.000000,461.000000 
	C140.018875,461.000000 70.537766,461.000000 1.028322,461.000000 
	C1.028322,307.727203 1.028322,154.454407 1.028322,1.090808 
	C154.231094,1.090808 307.462250,1.090808 460.846710,1.090808 
	C460.846710,154.333221 460.846710,307.666595 460.846710,461.000000 
	C377.454468,461.000000 293.977234,461.000000 210.000000,461.000000 
M261.327179,266.412994 
	C256.017609,265.087219 250.523544,264.251343 245.436279,262.335327 
	C234.289566,258.137207 223.374619,253.327774 212.314957,248.892822 
	C205.403152,246.121155 199.457825,250.595856 199.761597,257.980438 
	C199.975037,263.169312 203.819885,265.662506 207.404480,267.710022 
	C222.380310,276.264252 238.798935,281.176239 255.477844,284.944489 
	C280.870636,290.681458 306.577820,289.295013 331.877930,284.991791 
	C346.951111,282.428070 361.648956,277.123383 376.174377,272.070221 
	C385.176971,268.938354 393.706604,264.275360 402.127686,259.708160 
	C407.146545,256.986145 408.246063,251.526474 405.835358,246.751450 
	C404.085419,243.285278 399.514069,241.769897 394.402588,243.602722 
	C389.275604,245.441101 384.345825,247.835434 379.350128,250.032791 
	C341.835632,266.533600 302.947144,273.335052 261.327179,266.412994 
M364.159393,169.389023 
	C365.399200,170.226120 366.595856,171.137253 367.885559,171.888641 
	C378.558685,178.107025 391.963379,175.106781 399.271576,164.892212 
	C406.566254,154.696503 404.696442,141.417175 394.743195,132.732346 
	C386.894928,125.884209 370.633636,126.443802 362.954712,133.826233 
	C354.034973,142.401566 354.340881,158.769699 364.159393,169.389023 
M91.435127,172.188751 
	C97.850296,175.469650 104.499130,176.007584 111.215630,173.419373 
	C119.969849,170.045959 125.446960,164.040100 126.204369,154.248505 
	C126.953056,144.569824 124.482887,136.254807 115.822197,131.081345 
	C104.500023,124.318039 88.654747,128.436447 82.027916,139.424026 
	C75.314743,150.554749 78.974930,164.085129 91.435127,172.188751 
z"/>
<path fill="#FCF6F6" opacity="1.000000" stroke="none" 
	d="
M261.736359,266.542908 
	C302.947144,273.335052 341.835632,266.533600 379.350128,250.032791 
	C384.345825,247.835434 389.275604,245.441101 394.402588,243.602722 
	C399.514069,241.769897 404.085419,243.285278 405.835358,246.751450 
	C408.246063,251.526474 407.146545,256.986145 402.127686,259.708160 
	C393.706604,264.275360 385.176971,268.938354 376.174377,272.070221 
	C361.648956,277.123383 346.951111,282.428070 331.877930,284.991791 
	C306.577820,289.295013 280.870636,290.681458 255.477844,284.944489 
	C238.798935,281.176239 222.380310,276.264252 207.404480,267.710022 
	C203.819885,265.662506 199.975037,263.169312 199.761597,257.980438 
	C199.457825,250.595856 205.403152,246.121155 212.314957,248.892822 
	C223.374619,253.327774 234.289566,258.137207 245.436279,262.335327 
	C250.523544,264.251343 256.017609,265.087219 261.736359,266.542908 
z"/>
<path fill="#FCF6F7" opacity="1.000000" stroke="none" 
	d="
M363.885010,169.153641 
	C354.340881,158.769699 354.034973,142.401566 362.954712,133.826233 
	C370.633636,126.443802 386.894928,125.884209 394.743195,132.732346 
	C404.696442,141.417175 406.566254,154.696503 399.271576,164.892212 
	C391.963379,175.106781 378.558685,178.107025 367.885559,171.888641 
	C366.595856,171.137253 365.399200,170.226120 363.885010,169.153641 
z"/>
<path fill="#FCF7F7" opacity="1.000000" stroke="none" 
	d="
M91.112320,172.000626 
	C78.974930,164.085129 75.314743,150.554749 82.027916,139.424026 
	C88.654747,128.436447 104.500023,124.318039 115.822197,131.081345 
	C124.482887,136.254807 126.953056,144.569824 126.204369,154.248505 
	C125.446960,164.040100 119.969849,170.045959 111.215630,173.419373 
	C104.499130,176.007584 97.850296,175.469650 91.112320,172.000626 
z"/>
</svg>